<svg version="1.0" xmlns="http://www.w3.org/2000/svg" width="175.000000pt" height="178.000000pt" viewBox="0 0 175.000000 178.000000" preserveAspectRatio="xMidYMid meet"><g transform="translate(0.000000,178.000000) scale(0.100000,-0.100000)" fill="#000000" stroke="none"><path d="M180 875 l0 -705 702 0 702 0 -109 114 -110 113 -483 4 -482 4 -1 470 0 470 483 4 483 4 110 113 109 114 -702 0 -702 0 0 -705z m1297 655 c2 0 -30 -31 -70 -70 l-72 -69 -487 -1 -488 0 0 -505 c0 -278 -1 -508 -2 -512 -2 -5 218 -10 488 -13 l492 -5 71 -67 c39 -38 71 -69 71 -70 0 -2 -282 -3 -628 -2 l-627 1 -3 649 c-1 357 0 654 2 659 2 7 218 9 627 8 343 -2 625 -3 626 -3z"/><path d="M878 1143 l-257 -3 -3 -265 -3 -265 263 0 262 0 0 270 c0 149 -1 269 -2 268 -2 -2 -119 -4 -260 -5z m222 -268 l0 -225 -222 0 -223 0 0 225 0 225 223 0 222 0 0 -225z"/></g></svg>